:SAMPLES-PER-SECOND 30
:FULLY-SPECIFIED
:DEGREES
46
root  57.1056 39.7969 28.3666 -70.6305 -86.8054 68.6371
RightUpLeg  -20.2952 -1.27066 -7.27817
RightLeg  53.2107 -3.74947 -5.7531
RightFoot  4.02142 -0.676822 5.20887
RightToes  1.74622e-010 0 -3.6325e-017
Spine  9.968 -0.0994426 -0.409292
Spine1  7.08832 0.366744 -2.60335
HEad  -10.408 3.08291 -4.3953
LeftShoulder1  8.13142 -11.562 -47.0906
LeftArm  -8.49892 1.76718 -27.3978
LeftForeArm  23.7195 -15.0459 -4.89989
LeftHand  -0.244104 0.0205437 5.32207
RightShoulder  6.73701 10.3388 42.3759
RightArm  3.30435 -15.5313 34.1538
RightForeArm  6.95486 11.551 8.25711
RightHand  -0.794767 0.74136 -15.1299
LeftUpLeg  -2.44191 6.41647 -4.80589
LeftLeg  12.3553 12.104 -1.8115
LeftFoot  -10.0955 0.0240722 3.3314
LeftToes  -3.34697e-010 -1.70107e-010 -9.05613e-011
47
root  55.81 39.8298 28.5392 -54.1831 -87.1702 51.8438
RightUpLeg  -22.0518 -3.53296 -5.7019
RightLeg  44.3723 -4.78398 -5.29593
RightFoot  2.35631 -0.604616 5.17318
RightToes  1.74622e-010 0 -3.6325e-017
Spine  10.5374 -0.79553 -0.509971
Spine1  6.71632 -0.665345 -1.46354
HEad  -10.407 3.11633 -3.88823
LeftShoulder1  8.10513 -11.6333 -46.7091
LeftArm  -6.93611 -1.70863 -27.4711
LeftForeArm  21.6154 -18.0528 -4.38674
LeftHand  -0.244104 0.0205437 5.32207
RightShoulder  6.63246 10.2147 42.0766
RightArm  2.99122 -18.0051 33.1713
RightForeArm  6.94319 11.3985 8.22966
RightHand  -0.730664 0.165221 -15.2979
LeftUpLeg  0.730528 5.2698 -3.77524
LeftLeg  11.1359 12.4346 -2.65739
LeftFoot  -11.832 0.0826076 2.8407
LeftToes  -3.34697e-010 -1.70107e-010 -9.05613e-011
48
root  54.4322 39.68 28.6624 -45.2464 -86.9348 42.6553
RightUpLeg  -22.4406 -6.82153 -4.30415
RightLeg  32.6119 -4.78597 -3.68294
RightFoot  1.4919 -0.657896 5.93048
RightToes  1.74622e-010 0 -3.6325e-017
Spine  10.8545 -1.29216 -1.58835
Spine1  6.34197 -1.56881 -0.241504
HEad  -10.75 3.04716 -3.67523
LeftShoulder1  8.01865 -11.6197 -46.2393
LeftArm  -6.30648 -5.20239 -27.5163
LeftForeArm  20.9143 -20.5089 -3.96942
LeftHand  -0.244104 0.0205437 5.32207
RightShoulder  6.59151 10.1506 42.0083
RightArm  1.91139 -19.9563 31.7619
RightForeArm  7.28274 10.7826 8.21221
RightHand  -0.762615 0.28268 -15.6456
LeftUpLeg  3.30369 5.03454 -3.36558
LeftLeg  11.2974 12.1044 -3.07819
LeftFoot  -14.0546 0.144987 2.51847
LeftToes  -3.34697e-010 -1.70107e-010 -9.05613e-011
49
root  52.9647 39.52 28.7826 -41.081 -86.4576 38.4599
RightUpLeg  -21.8224 -10.273 -3.04268
RightLeg  18.7198 -3.53871 -0.974547
RightFoot  1.39228 -0.697658 6.32822
RightToes  1.74622e-010 0 -3.6325e-017
Spine  10.7532 -1.72862 -2.8016
Spine1  6.07503 -2.42909 1.30144
HEad  -11.1442 2.791 -3.58884
LeftShoulder1  7.87348 -11.5073 -45.7269
LeftArm  -7.0266 -8.33645 -27.5933
LeftForeArm  21.7907 -22.5921 -3.82809
LeftHand  -0.244104 0.0205437 5.32207
RightShoulder  6.48939 10.0016 41.7987
RightArm  -0.0278625 -21.4854 30.4788
RightForeArm  8.89599 9.68935 8.05068
RightHand  -0.772701 0.554338 -15.1442
LeftUpLeg  6.16732 4.94657 -3.29144
LeftLeg  10.6522 11.6923 -3.46171
LeftFoot  -15.6239 0.192151 2.61768
LeftToes  -3.34697e-010 -1.70107e-010 -9.05613e-011
50
root  51.4293 39.3274 28.9056 -38.0867 -85.8363 35.4996
RightUpLeg  -20.3601 -9.3669 -3.82483
RightLeg  4.8178 -4.6309 2.80429
RightFoot  1.18242 -0.72484 6.67485
RightToes  1.74622e-010 0 -3.6325e-017
Spine  10.3951 -2.16047 -3.62462
Spine1  5.94857 -3.19192 2.63102
HEad  -11.207 2.25583 -3.23705
LeftShoulder1  7.82127 -11.518 -45.3795
LeftArm  -8.50958 -10.5791 -27.2818
LeftForeArm  23.1154 -24.8755 -4.08903
LeftHand  -0.244104 0.0205437 5.32207
RightShoulder  6.30101 9.72568 41.4045
RightArm  -2.4977 -22.6417 29.6933
RightForeArm  10.7416 8.14523 7.6387
RightHand  -0.72387 0.494131 -14.3428
LeftUpLeg  9.28413 5.02926 -3.22789
LeftLeg  9.58402 10.7907 -3.87106
LeftFoot  -17.1689 0.220811 2.34419
LeftToes  -3.34697e-010 -1.70107e-010 -9.05613e-011
51
root  49.7882 38.9772 28.9987 -38.0564 -85.2402 35.3354
RightUpLeg  -19.4196 -6.61884 -5.28381
RightLeg  -4.26497 -6.32838 5.43669
RightFoot  0.159907 -0.821328 8.17795
RightToes  1.74622e-010 0 -3.6325e-017
Spine  9.98881 -2.49023 -4.2395
Spine1  5.73074 -3.67398 3.36661
HEad  -11.4846 1.36803 -2.82696
LeftShoulder1  7.83478 -11.6214 -45.1385
LeftArm  -9.52202 -12.0893 -26.779
LeftForeArm  24.0065 -27.0394 -4.52566
LeftHand  -0.244104 0.0205437 5.32207
RightShoulder  6.16355 9.53728 41.0618
RightArm  -4.91572 -23.3937 29.2707
RightForeArm  11.0313 6.14895 6.97516
RightHand  -0.687663 0.240653 -14.227
LeftUpLeg  12.0967 5.54042 -2.98609
LeftLeg  10.0239 9.2767 -4.04365
LeftFoot  -19.4604 0.205848 1.26386
LeftToes  -3.34697e-010 -1.70107e-010 -9.05613e-011
52
root  48.0882 38.6108 29.0577 -36.5219 -85.0865 33.6887
RightUpLeg  -20.4074 -6.59578 -4.74471
RightLeg  -4.12565 -6.71534 5.63829
RightFoot  -1.16592 -0.818644 9.04131
RightToes  1.74622e-010 0 -3.6325e-017
Spine  9.59996 -2.67026 -4.17966
Spine1  5.53975 -3.95309 3.91326
HEad  -12.2812 -0.0780044 -2.37403
LeftShoulder1  7.7761 -11.6005 -44.8508
LeftArm  -9.85526 -12.9939 -26.6226
LeftForeArm  24.7911 -28.8003 -4.87858
LeftHand  -0.244104 0.0205437 5.32207
RightShoulder  6.17504 9.59958 40.9324
RightArm  -6.97749 -23.6969 28.8285
RightForeArm  10.1319 4.01852 6.24828
RightHand  -0.711724 0.240386 -14.7138
LeftUpLeg  14.5311 6.79166 -2.17818
LeftLeg  11.4267 7.29854 -3.66958
LeftFoot  -21.1217 0.130339 0.029833
LeftToes  -3.34697e-010 -1.70107e-010 -9.05613e-011
53
root  46.3349 38.3591 29.103 -27.4282 -85.2717 24.6086
RightUpLeg  -21.7177 -6.37329 -3.2175
RightLeg  1.19724 -9.31009 4.78229
RightFoot  -0.0119259 -0.653487 6.66858
RightToes  1.74622e-010 0 -3.6325e-017
Spine  9.10328 -2.91652 -2.81887
Spine1  5.61275 -4.27026 4.25618
HEad  -12.5857 -1.78328 -2.56282
LeftShoulder1  7.69561 -11.4883 -44.713
LeftArm  -10.0677 -12.8136 -26.6438
LeftForeArm  25.9885 -30.5761 -5.22547
LeftHand  -0.244104 0.0205437 5.32207
RightShoulder  6.25401 9.74413 41.0096
RightArm  -8.38572 -23.6146 28.2368
RightForeArm  9.54326 2.49686 5.71054
RightHand  -0.774874 0.571307 -15.149
LeftUpLeg  16.6477 9.05665 -0.394928
LeftLeg  13.2323 4.25624 -2.47518
LeftFoot  -21.5649 -0.0218368 -1.66177
LeftToes  -3.34697e-010 -1.70107e-010 -9.05613e-011
54
root  44.4547 38.1778 29.1521 -10.125 -85.3173 7.07558
RightUpLeg  -23.0817 -8.67409 0.0770257
RightLeg  8.65758 -8.50683 2.50574
RightFoot  3.31909 -0.196378 1.78925
RightToes  1.74622e-010 0 -3.6325e-017
Spine  8.48831 -3.38707 -0.0246454
Spine1  5.73889 -4.50856 3.78253
HEad  -12.2171 -2.84628 -2.96558
LeftShoulder1  7.75623 -11.4917 -45.0683
LeftArm  -10.0379 -11.1228 -26.296
LeftForeArm  27.3241 -32.5332 -5.62133
LeftHand  -0.244104 0.0205437 5.32207
RightShoulder  6.2714 9.72634 41.1929
RightArm  -8.93715 -23.2597 27.7238
RightForeArm  9.53744 2.03571 5.48104
RightHand  -0.815149 0.835264 -15.2728
LeftUpLeg  18.5018 11.3996 2.30829
LeftLeg  16.1228 0.439629 -0.928073
LeftFoot  -21.2307 -0.334049 -5.34911
LeftToes  -3.34697e-010 -1.70107e-010 -9.05613e-011
55
root  42.539 38.1068 29.2041 12.1011 -85.3927 -15.6209
RightUpLeg  -23.9428 -12.2862 4.43738
RightLeg  14.9303 -3.63205 0.389618
RightFoot  6.12447 0.513696 -3.14314
RightToes  1.74622e-010 0 -3.6325e-017
Spine  8.1156 -3.6771 3.9788
Spine1  5.7583 -4.30884 2.62486
HEad  -11.8146 -4.19198 -3.3989
LeftShoulder1  7.93924 -11.608 -45.8044
LeftArm  -9.35788 -8.15357 -25.7725
LeftForeArm  28.4113 -34.0065 -5.92567
LeftHand  -0.244104 0.0205437 5.32207
RightShoulder  6.22494 9.59481 41.3062
RightArm  -9.0728 -22.6076 27.6058
RightForeArm  9.57902 2.34426 5.48023
RightHand  -0.800093 0.779096 -15.1247
LeftUpLeg  19.0419 11.3744 4.8652
LeftLeg  21.2045 -0.604818 0.259103
LeftFoot  -18.197 -0.505084 -10.6411
LeftToes  -3.34697e-010 -1.70107e-010 -9.05613e-011
56
root  40.6644 38.0929 29.2203 33.3515 -85.3067 -37.2566
RightUpLeg  -24.0535 -13.2699 7.16029
RightLeg  20.3579 -0.89091 -0.579955
RightFoot  5.12982 0.887494 -5.89803
RightToes  1.74622e-010 0 -3.6325e-017
Spine  7.9083 -3.61361 7.60867
Spine1  5.54855 -3.66748 1.56774
HEad  -11.1882 -5.50451 -3.83417
LeftShoulder1  8.06933 -11.6694 -46.3847
LeftArm  -8.13293 -4.63985 -25.8887
LeftForeArm  28.9629 -34.2116 -5.94655
LeftHand  -0.244104 0.0205437 5.32207
RightShoulder  6.20397 9.57324 41.2296
RightArm  -9.13954 -21.451 27.995
RightForeArm  9.14422 3.06971 5.62257
RightHand  -0.770885 0.647073 -14.8898
LeftUpLeg  16.3866 9.20955 6.33873
LeftLeg  30.5645 1.82663 1.552
LeftFoot  -9.69507 0.225868 -13.5192
LeftToes  -3.34697e-010 -1.70107e-010 -9.05613e-011
57
root  38.9402 38.0957 29.1909 47.151 -84.5974 -51.0971
RightUpLeg  -23.0769 -12.4018 8.22966
RightLeg  24.3135 -1.59719 -1.03786
RightFoot  1.33649 0.710277 -6.26211
RightToes  1.74622e-010 0 -3.6325e-017
Spine  7.61999 -3.39365 10.2841
Spine1  5.46676 -2.99373 1.20426
HEad  -10.4815 -6.82306 -3.95366
LeftShoulder1  8.07831 -11.6377 -46.5368
LeftArm  -6.62363 -1.43793 -26.9259
LeftForeArm  28.5861 -32.848 -5.62805
LeftHand  -0.244104 0.0205437 5.32207
RightShoulder  6.24588 9.69756 41.1081
RightArm  -8.89119 -19.5659 28.6218
RightForeArm  8.13099 4.40524 5.98824
RightHand  -0.790853 0.80937 -14.8822
LeftUpLeg  10.3866 7.44339 7.3868
LeftLeg  42.5998 3.2565 3.56611
LeftFoot  3.35272 1.34992 -10.9283
LeftToes  -3.34697e-010 -1.70107e-010 -9.05613e-011
58
root  37.3835 38.11 29.1517 51.3216 -83.2515 -55.1736
RightUpLeg  -21.5803 -12.7468 9.25706
RightLeg  26.7792 -2.17826 -1.43172
RightFoot  -2.74434 0.407098 -5.65891
RightToes  1.74622e-010 0 -3.6325e-017
Spine  7.36522 -3.26669 12.5819
Spine1  5.75289 -2.4735 1.33999
HEad  -10.2802 -8.77125 -3.55307
LeftShoulder1  8.06832 -11.6079 -46.5715
LeftArm  -4.5772 0.921171 -28.258
LeftForeArm  27.1272 -29.956 -5.01322
LeftHand  -0.244104 0.0205437 5.32207
RightShoulder  6.30713 9.79754 41.2066
RightArm  -7.98108 -16.911 29.065
RightForeArm  7.02232 6.62427 6.59296
RightHand  -0.848657 1.18204 -15.0823
LeftUpLeg  2.90419 5.23992 8.16546
LeftLeg  53.7755 3.03133 4.89808
LeftFoot  12.4797 1.24818 -6.15378
LeftToes  -3.34697e-010 -1.70107e-010 -9.05613e-011
59
root  35.8003 38.3605 29.1084 50.0816 -82.6289 -54.0941
RightUpLeg  -18.6571 -13.606 9.2762
RightLeg  26.9489 -1.82691 -1.2623
RightFoot  -5.47999 0.226602 -5.15271
RightToes  1.74622e-010 0 -3.6325e-017
Spine  7.28409 -2.89254 13.7375
Spine1  5.9144 -1.84013 1.15614
HEad  -10.3884 -11.189 -2.91328
LeftShoulder1  8.13491 -11.6442 -46.85
LeftArm  -1.6009 2.68068 -29.1769
LeftForeArm  24.8648 -25.8211 -4.21171
LeftHand  -0.244104 0.0205437 5.32207
RightShoulder  6.34184 9.7838 41.4976
RightArm  -6.14983 -13.7011 29.3259
RightForeArm  5.96363 9.53263 7.11863
RightHand  -0.857833 1.27579 -15.0335
LeftUpLeg  -3.66898 3.7071 8.22533
LeftLeg  61.3089 2.66593 5.86768
LeftFoot  12.9962 0.648757 -3.33398
LeftToes  -3.34697e-010 -1.70107e-010 -9.05613e-011
60
root  34.1626 38.7864 29.0542 47.8138 -83.3225 -52.1286
RightUpLeg  -14.5194 -14.0617 7.93086
RightLeg  25.3565 -0.96805 -0.590959
RightFoot  -7.22448 0.116125 -4.57656
RightToes  1.74622e-010 0 -3.6325e-017
Spine  7.30406 -2.14554 13.6114
Spine1  5.80987 -0.87911 0.278012
HEad  -10.1313 -13.4198 -2.34201
LeftShoulder1  8.24518 -11.727 -47.2356
LeftArm  0.688441 4.58285 -29.5346
LeftForeArm  23.4894 -21.0155 -3.95916
LeftHand  -0.244104 0.0205437 5.32207
RightShoulder  6.33404 9.7298 41.6245
RightArm  -2.85851 -10.3186 29.908
RightForeArm  3.71541 12.8448 7.0643
RightHand  -0.790152 0.914471 -14.6309
LeftUpLeg  -8.87794 3.45241 7.39598
LeftLeg  64.3439 2.70308 6.77297
LeftFoot  8.62038 0.481346 -3.07763
LeftToes  -3.34697e-010 -1.70107e-010 -9.05613e-011
